<svg id="Layer_1" data-name="Layer 1" xmlns="http://www.w3.org/2000/svg" viewBox="0 0 24 24"><defs><style>.cls-1{fill:#8fa3bf;}.cls-2{fill:#fff;fill-rule:evenodd;}</style></defs><path class="cls-1" d="M12,0h0A12,12,0,0,1,24,12h0A12,12,0,0,1,12,24h0A12,12,0,0,1,0,12H0A12,12,0,0,1,12,0Z"/><path class="cls-2" d="M15,5.4a.32.32,0,0,0-.42-.11L9.47,8.16a.28.28,0,0,0-.15.32L11,16.65a.19.19,0,0,1,0,.13l-.21.22a1.78,1.78,0,0,1-1.49.74c-.77,0-1.14-.4-1.71-1.11a4.19,4.19,0,0,0-3.64-1.91h0a.51.51,0,0,0-.51.51.5.5,0,0,0,.51.5h0a3.19,3.19,0,0,1,2.83,1.53,3.09,3.09,0,0,0,2.52,1.49,2.82,2.82,0,0,0,2.26-1.07l1.86-2.06,4.43-4.9a.3.3,0,0,0,0-.35Z"/></svg>